<?xml version="1.0" encoding="utf-8"?>
<!-- Generator: Adobe Illustrator 25.3.1, SVG Export Plug-In . SVG Version: 6.00 Build 0)  -->
<svg version="1.1" id="Layer_1" xmlns="http://www.w3.org/2000/svg" xmlns:xlink="http://www.w3.org/1999/xlink" x="0px" y="0px"
	 viewBox="0 0 512 512" style="enable-background:new 0 0 512 512;" xml:space="preserve">
<style type="text/css">
	.st0{fill:#515151;}
	.st1{fill:#D63447;}
</style>
<g id="Drawing_Surface">
	<g id="Outline_no_shadow">
		<path class="st0" d="M90.7,6.4h330.7c50.1,0,90.7,40.5,90.7,90.7v317.9c0,50.1-40.5,90.7-90.7,90.7H90.7
			C40.5,505.6,0,465.1,0,414.9V97.1C0,46.9,40.5,6.4,90.7,6.4z"/>
	</g>
</g>
<g id="Ai">
	<path class="st1" d="M248.1,305.9h-79.4l-16.2,50.1c-0.4,1.9-2.1,3.2-4.1,3h-40.1c-2.3,0-3-1.3-2.3-3.8l68.7-197.8
		c0.6-2.1,1.3-4.5,2.1-7c0.9-4.5,1.3-9.2,1.3-13.9c-0.2-1.1,0.6-2.1,1.7-2.3c0.2,0,0.4,0,0.6,0h54.6c1.7,0,2.6,0.6,2.8,1.7
		l77.9,219.7c0.6,2.3,0,3.4-2.1,3.4H269c-1.5,0.2-3-0.9-3.4-2.3L248.1,305.9z M181.1,262.6h54.2c-1.3-4.5-3-9.8-4.9-15.4
		c-1.9-5.8-3.8-11.9-5.8-18.3c-2.1-6.6-4.1-13-6.2-19.6s-4.1-12.8-5.8-19c-1.7-6-3.2-11.5-4.7-16.6h-0.4c-1.9,9.2-4.3,18.3-7.3,27.5
		c-3.2,10.2-6.4,20.9-9.8,31.6C187.5,243.6,184.3,253.7,181.1,262.6L181.1,262.6z"/>
	<path class="st1" d="M362.2,170.7c-7,0.2-13.9-2.6-19-7.5c-4.9-5.3-7.5-12.4-7.3-19.6c-0.2-7.3,2.6-14.1,7.7-19
		c5.1-4.9,11.9-7.5,19-7.5c8.3,0,14.7,2.6,19.4,7.5c4.7,5.1,7.3,11.9,7,19c0.2,7.3-2.3,14.3-7.5,19.6
		C376.7,168.3,369.5,171.1,362.2,170.7z M338.3,355.8V191.6c0-2.1,0.9-3,2.8-3h42.2c1.9,0,2.8,1.1,2.8,3v164.3
		c0,2.3-0.9,3.4-2.8,3.4h-41.8C339.4,359.3,338.3,358,338.3,355.8z"/>
</g>
</svg>
