<?xml version="1.0" encoding="utf-8"?>
<!-- Generator: Adobe Illustrator 25.3.1, SVG Export Plug-In . SVG Version: 6.00 Build 0)  -->
<svg version="1.1" id="Layer_1" xmlns="http://www.w3.org/2000/svg" xmlns:xlink="http://www.w3.org/1999/xlink" x="0px" y="0px"
	 viewBox="0 0 512 512" style="enable-background:new 0 0 512 512;" xml:space="preserve">
<style type="text/css">
	.st0{fill:#515151;}
	.st1{fill:#D63447;}
</style>
<g id="Surfaces">
	<g id="Photo_Surface">
		<g id="Outline_no_shadow">
			<path class="st0" d="M90.7,6.9h330.7c50.1,0,90.7,40.5,90.7,90.7v317.9c0,50.1-40.5,90.7-90.7,90.7H90.7
				C40.5,506.1,0,465.6,0,415.4V97.6C0,47.4,40.5,6.9,90.7,6.9z"/>
		</g>
	</g>
</g>
<g id="Outlined_Mnemonics_Logos">
	<g id="Ps">
		<path class="st1" d="M115.2,357V137.5c0-1.5,0.6-2.3,2.1-2.3c3.6,0,7,0,11.9-0.2c5.1-0.2,10.5-0.2,16.2-0.4s11.9-0.2,18.6-0.4
			c6.6-0.2,13-0.2,19.4-0.2c17.5,0,32,2.1,43.9,6.6c10.7,3.6,20.5,9.6,28.6,17.5c6.8,6.8,12.2,15.1,15.6,24.3
			c3.2,9,4.9,18.1,4.9,27.7c0,18.3-4.3,33.5-12.8,45.4c-8.5,11.9-20.5,20.9-34.3,26c-14.5,5.3-30.5,7.3-48,7.3
			c-5.1,0-8.5,0-10.7-0.2c-2.1-0.2-5.1-0.2-9.2-0.2v68.5c0.2,1.5-0.9,2.8-2.3,3c-0.2,0-0.4,0-0.9,0h-40.5
			C116.1,359.8,115.2,358.9,115.2,357z M161.7,176.3V248c3,0.2,5.8,0.4,8.3,0.4h11.3c8.3,0,16.6-1.3,24.5-3.8
			c6.8-1.9,12.8-6,17.5-11.3c4.5-5.3,6.6-12.6,6.6-22c0.2-6.6-1.5-13.2-4.9-19c-3.6-5.5-8.7-9.8-14.9-12.2
			c-7.9-3.2-16.4-4.5-25.2-4.3c-5.5,0-10.5,0-14.5,0.2C166.2,175.9,163.2,176.1,161.7,176.3L161.7,176.3z"/>
		<path class="st1" d="M409.6,235c-6.4-3.4-13.2-5.8-20.5-7.3c-7.9-1.7-15.8-2.8-23.9-2.8c-4.3-0.2-8.7,0.4-12.8,1.5
			c-2.8,0.6-5.1,2.1-6.6,4.3c-1.1,1.7-1.7,3.8-1.7,5.8c0,1.9,0.9,3.8,2.1,5.5c1.9,2.3,4.5,4.3,7.3,5.8c4.9,2.6,10,4.9,15.1,7
			c11.5,3.8,22.6,9.2,32.9,15.6c7,4.5,12.8,10.5,16.9,17.7c3.4,6.8,5.1,14.3,4.9,22c0.2,10-2.8,20.1-8.3,28.4
			c-6,8.5-14.3,15.1-23.9,19c-10.5,4.5-23.3,6.8-38.6,6.8c-9.8,0-19.4-0.9-29-2.8c-7.5-1.3-14.9-3.6-21.8-6.8
			c-1.5-0.9-2.6-2.3-2.3-4.1v-37.1c0-0.6,0.2-1.5,0.9-1.9s1.3-0.2,1.9,0.2c8.3,4.9,17.1,8.3,26.5,10.5c8.1,2.1,16.6,3.2,25.2,3.2
			c8.1,0,13.9-1.1,17.7-3c3.4-1.5,5.8-5.1,5.8-9c0-3-1.7-5.8-5.1-8.5s-10.5-6-20.9-10c-10.9-3.8-20.9-9-30.3-15.4
			c-6.6-4.7-12.2-10.9-16.2-18.1c-3.4-6.8-5.1-14.3-4.9-21.8c0-9.2,2.6-17.9,7.3-25.8c5.3-8.5,13.2-15.4,22.4-19.6
			c10-5.1,22.6-7.5,37.8-7.5c8.7,0,17.7,0.6,26.5,1.9c6.4,0.9,12.6,2.6,18.3,4.9c0.9,0.2,1.7,1.1,2.1,1.9c0.2,0.9,0.4,1.7,0.4,2.6
			v34.8c0,0.9-0.4,1.7-1.1,2.1C411.5,235.4,410.5,235.4,409.6,235z"/>
	</g>
</g>
</svg>
