<?xml version="1.0" encoding="utf-8"?>
<!-- Generator: Adobe Illustrator 25.3.1, SVG Export Plug-In . SVG Version: 6.00 Build 0)  -->
<svg version="1.1" id="Layer_1" xmlns="http://www.w3.org/2000/svg" xmlns:xlink="http://www.w3.org/1999/xlink" x="0px" y="0px"
	 viewBox="0 0 512 512" style="enable-background:new 0 0 512 512;" xml:space="preserve">
<style type="text/css">
	.st0{fill:#D63447;}
	.st1{fill:#515151;}
</style>
<g transform="matrix(2.66418,0,0,2.66418,-520.324,532.513)">
	<path class="st0" d="M295.5-94.1c0.4-6.4,3.5-12.1,8.2-16.1c4.6-3.9,10.9-6.3,17.7-6.3c6.8,0,13.1,2.4,17.7,6.3
		c4.7,4,7.9,9.7,8.2,16.1c0.4,6.6-2.3,12.7-6.9,17.3c-4.7,4.6-11.5,7.5-19,7.5s-14.3-2.9-19-7.5C297.8-81.3,295.1-87.5,295.5-94.1z"
		/>
</g>
<g transform="matrix(2.66418,0,0,2.66418,-520.324,532.513)">
	<path class="st1" d="M254.2-81.1c0,2.5,0.8,7.4,2,11.2c2.5,8.1,6.8,15.5,12.8,22.1c6.1,6.8,13.6,12.2,22.3,16
		c9.1,4,19,6.1,29.3,6.1s20.2-2.1,29.3-6.2c8.7-3.9,16.2-9.3,22.3-16.1c5.9-6.6,10.2-14.1,12.7-22.1c1.3-4.1,2.1-8.2,2.4-12.4
		c0.3-4.1,0.2-8.2-0.4-12.3c-1.1-8-3.9-15.5-8.1-22.3c-3.9-6.3-8.9-11.8-14.8-16.4l0,0l-60-46.2c-0.1,0-0.1-0.1-0.2-0.1
		c-3.9-3-10.6-3-14.9,0c-4.4,3.1-4.9,8.1-1,11.3l0,0l25,20.4l-76.3,0.1h-0.1c-6.3,0-12.4,4.2-13.6,9.4c-1.2,5.3,3.1,9.8,9.6,9.8l0,0
		l38.7-0.1l-69,53c-0.1,0.1-0.2,0.1-0.3,0.2c-6.5,5-8.6,13.3-4.5,18.5c4.2,5.3,13,5.4,19.6,0l37.7-30.9
		C254.7-87.8,254.1-83.6,254.2-81.1z M351-67.1c-7.8,7.9-18.6,12.4-30.4,12.4S298-59.1,290.2-67c-3.8-3.9-6.6-8.3-8.3-13
		c-1.7-4.6-2.3-9.6-1.9-14.5s1.9-9.5,4.2-13.7c2.3-4.1,5.4-7.8,9.2-11c7.5-6.2,17.2-9.5,27.2-9.5c10.1,0,19.7,3.3,27.2,9.4
		c3.8,3.1,7,6.8,9.2,11c2.3,4.2,3.7,8.8,4.2,13.7c0.4,5-0.2,9.9-1.9,14.5C357.5-75.4,354.8-71,351-67.1z"/>
</g>
</svg>
