<?xml version="1.0" encoding="utf-8"?>
<!-- Generator: Adobe Illustrator 25.3.1, SVG Export Plug-In . SVG Version: 6.00 Build 0)  -->
<svg version="1.1" id="Layer_1" xmlns="http://www.w3.org/2000/svg" xmlns:xlink="http://www.w3.org/1999/xlink" x="0px" y="0px"
	 viewBox="0 0 512 512" style="enable-background:new 0 0 512 512;" xml:space="preserve">
<style type="text/css">
	.st0{fill:#515151;}
	.st1{fill:#D63447;}
</style>
<g>
	<path class="st0" d="M437.9,501.7H74.1c-40.2,0-72.7-32.6-72.7-72.7V83c0-40.2,32.6-72.7,72.7-72.7h363.8
		c40.2,0,72.7,32.6,72.7,72.7v346C510.6,469.2,478.1,501.7,437.9,501.7z"/>
	<g>
		<path class="st1" d="M276.3,178.1c-3.3-8.9-9-15.4-16-22c-7-6.5-16.4-11.6-27.2-15.3c-10.8-3.7-23.6-5.6-38.6-5.6h-75.1v223h51.4
			v-69.2l23.7-0.6c14.7,0,32.2-4.5,43-8.2c10.8-3.7,17.7-9.5,24.7-16.2c7-6.6,12.9-16.3,16.3-25.6c3.4-9.3,3.7-20,3.7-31.1
			C282.3,197.1,279.6,187,276.3,178.1z M226.8,235.6c-5.6,6.4-18.4,11.2-31.2,11.2h-25.7v-69.3l25.7,0.2c6.2,0,11.8,0.7,16.3,2.3
			c4.5,1.6,8.9,2.4,11.8,5.4c3,3,6.9,5.8,8.3,10c1.5,4.2,2.8,9.2,2.8,14.3C234.9,221.2,232.5,229.1,226.8,235.6z"/>
		<path class="st1" d="M377.3,140.9v48.6h30.8v40.6h-30.8v62.7c0,12.2,0.7,19.6,3.4,23.3c2.7,3.8,7.7,5,14.7,5c1.9,0,8.2,0,12.1-0.3
			l-0.2,33.6c-5.6,4.3-18.9,6.4-27.4,6.4c-23.4,0-35.6-5-43.2-13.4c-7.7-8.4-10.4-26.9-10.4-51.9v-65.6H301v-40.6h25.4v-44
			L377.3,140.9z"/>
	</g>
</g>
</svg>
